<svg xmlns="http://www.w3.org/2000/svg" viewBox="0 0 1024 1024" width="1024" height="1024">
<!-- Sublight: sub-minimum keyboard backlight for Apple Silicon MacBooks -->
<defs><clipPath id="kbclip"><path d="M 336.0 340.0 L 688.0 340.0 Q 714.0 340.0 718.5 365.6 L 773.5 678.4 Q 778.0 704.0 752.0 704.0 L 272.0 704.0 Q 246.0 704.0 250.5 678.4 L 305.5 365.6 Q 310.0 340.0 336.0 340.0 Z"/></clipPath><radialGradient id="kg" cx="50%" cy="50%" r="50%"><stop offset="0%" stop-color="#FFC23F" stop-opacity="1"/><stop offset="100%" stop-color="#FFC23F" stop-opacity="0"/></radialGradient></defs>
<rect width="1024" height="1024" fill="#000000"/>
<rect x="92" y="92" width="840" height="840" rx="178" fill="none" stroke="#EFA00E" stroke-width="44" opacity="0.10"/>
<rect x="92" y="92" width="840" height="840" rx="178" fill="none" stroke="#EFA00E" stroke-width="16"/>
<path d="M 336.0 340.0 L 688.0 340.0 Q 714.0 340.0 718.5 365.6 L 773.5 678.4 Q 778.0 704.0 752.0 704.0 L 272.0 704.0 Q 246.0 704.0 250.5 678.4 L 305.5 365.6 Q 310.0 340.0 336.0 340.0 Z" fill="#120B03" stroke="#EFA00E" stroke-width="12" stroke-linejoin="round"/>
<g clip-path="url(#kbclip)"><circle cx="559.2" cy="421.0" r="77.3" fill="url(#kg)" opacity="0.30"/><circle cx="653.6" cy="421.0" r="77.3" fill="url(#kg)" opacity="0.30"/><circle cx="512.0" cy="491.0" r="64.0" fill="url(#kg)" opacity="0.30"/><circle cx="592.4" cy="491.0" r="64.0" fill="url(#kg)" opacity="0.30"/><circle cx="672.8" cy="491.0" r="64.0" fill="url(#kg)" opacity="0.30"/><circle cx="512.0" cy="561.0" r="68.7" fill="url(#kg)" opacity="0.30"/><circle cx="597.3" cy="561.0" r="68.7" fill="url(#kg)" opacity="0.30"/><circle cx="682.7" cy="561.0" r="68.7" fill="url(#kg)" opacity="0.30"/><circle cx="589.1" cy="634.0" r="60.8" fill="url(#kg)" opacity="0.30"/><circle cx="682.5" cy="634.0" r="93.5" fill="url(#kg)" opacity="0.30"/></g>
<rect x="454" y="360" width="116" height="14" rx="7" fill="#EFA00E" opacity="0.9"/>
<rect x="329.8" y="392.0" width="81.4" height="58.0" rx="12" fill="none" stroke="#EFA00E" stroke-width="5"/>
<rect x="424.1" y="392.0" width="81.4" height="58.0" rx="12" fill="none" stroke="#EFA00E" stroke-width="5"/>
<rect x="518.5" y="392.0" width="81.4" height="58.0" rx="12" fill="#F2A30C"/>
<rect x="612.9" y="392.0" width="81.4" height="58.0" rx="12" fill="#F2A30C"/>
<rect x="317.5" y="462.0" width="67.4" height="58.0" rx="12" fill="none" stroke="#EFA00E" stroke-width="5"/>
<rect x="397.9" y="462.0" width="67.4" height="58.0" rx="12" fill="none" stroke="#EFA00E" stroke-width="5"/>
<rect x="478.3" y="462.0" width="67.4" height="58.0" rx="12" fill="#F2A30C"/>
<rect x="558.7" y="462.0" width="67.4" height="58.0" rx="12" fill="#F2A30C"/>
<rect x="639.1" y="462.0" width="67.4" height="58.0" rx="12" fill="#F2A30C"/>
<rect x="305.1" y="532.0" width="72.3" height="58.0" rx="12" fill="none" stroke="#EFA00E" stroke-width="5"/>
<rect x="390.5" y="532.0" width="72.3" height="58.0" rx="12" fill="none" stroke="#EFA00E" stroke-width="5"/>
<rect x="475.8" y="532.0" width="72.3" height="58.0" rx="12" fill="#F2A30C"/>
<rect x="561.2" y="532.0" width="72.3" height="58.0" rx="12" fill="#F2A30C"/>
<rect x="646.5" y="532.0" width="72.3" height="58.0" rx="12" fill="#F2A30C"/>
<rect x="292.3" y="602.0" width="88.6" height="64.0" rx="12" fill="none" stroke="#EFA00E" stroke-width="5"/>
<rect x="393.9" y="602.0" width="151.0" height="64.0" rx="12" fill="none" stroke="#EFA00E" stroke-width="5"/>
<rect x="557.9" y="602.0" width="62.4" height="64.0" rx="12" fill="#F2A30C"/>
<rect x="633.2" y="602.0" width="98.5" height="64.0" rx="12" fill="#F2A30C"/>
</svg>
